<?xml version="1.0" encoding="UTF-8" standalone="no"?>
<!-- Created with Inkscape (http://www.inkscape.org/) -->
<svg height="48" viewBox="0 0 48 48.000001" width="48" xmlns="http://www.w3.org/2000/svg" xmlns:xlink="http://www.w3.org/1999/xlink">
  <defs>
    <linearGradient id="a" gradientTransform="matrix(.71746 0 0 .71428 88.917 568.36)" gradientUnits="userSpaceOnUse" x1="-87" x2="-87" y1="616" y2="672">
      <stop offset="0" stop-color="#d4ba94"/>
      <stop offset="1" stop-color="#997657"/>
    </linearGradient>
    <linearGradient id="b" gradientTransform="matrix(.71428 0 0 .71746 720.36 -803.98)" gradientUnits="userSpaceOnUse" x1="410" x2="421" y1="1080.4" y2="1080.4">
      <stop offset="0" stop-color="#e4720c"/>
      <stop offset="1" stop-color="#f1d23b"/>
    </linearGradient>
    <linearGradient id="c" gradientTransform="matrix(.71746 0 0 .71428 -269.81 245.25)" gradientUnits="userSpaceOnUse" x1="415" x2="415" y1="1068.4" y2="1079.4">
      <stop offset="0" stop-color="#884d2c"/>
      <stop offset="1" stop-color="#ffa92d"/>
    </linearGradient>
    <linearGradient id="d" gradientTransform="matrix(.71746 0 0 .71428 -269.33 245.54)" gradientUnits="userSpaceOnUse" x1="424" x2="424" y1="1074.4" y2="1086.4">
      <stop offset="0" stop-color="#884d2c"/>
      <stop offset="1" stop-color="#b7bf31"/>
    </linearGradient>
    <linearGradient id="e" gradientTransform="matrix(.71746 0 0 .71428 -269.85 568.94)" gradientUnits="userSpaceOnUse" x1="409" x2="409" y1="629" y2="642">
      <stop offset="0" stop-color="#ffa92d"/>
      <stop offset="1" stop-color="#ffe5e1"/>
    </linearGradient>
    <linearGradient id="f" gradientTransform="matrix(.71746 0 0 .71428 -269.33 246.11)" gradientUnits="userSpaceOnUse" x1="424" x2="424" y1="1092.4" y2="1101.4">
      <stop offset="0" stop-color="#7ceca4"/>
      <stop offset="1" stop-color="#e1f2ff"/>
    </linearGradient>
    <linearGradient id="g" gradientTransform="matrix(.71746 0 0 .71428 -269.07 568.94)" gradientUnits="userSpaceOnUse" x1="433.3" x2="433.3" y1="632" y2="643.95">
      <stop offset="0" stop-color="#377d50"/>
      <stop offset="1" stop-color="#3b85b5"/>
    </linearGradient>
    <linearGradient id="h" gradientTransform="matrix(.71746 0 0 .71428 -269.33 568.94)" gradientUnits="userSpaceOnUse" x1="425" x2="425" y1="632" y2="640">
      <stop offset="0" stop-color="#b7bf31"/>
      <stop offset="1" stop-color="#54d883"/>
    </linearGradient>
    <linearGradient id="i" gradientTransform="matrix(.71746 0 0 .71428 -269.07 569.51)" gradientUnits="userSpaceOnUse" x1="432" x2="432" y1="647" y2="662">
      <stop offset="0" stop-color="#375a7d"/>
      <stop offset="1" stop-color="#7cbcec"/>
    </linearGradient>
    <linearGradient id="j" gradientTransform="matrix(.71746 0 0 .71428 -269.81 245.25)" gradientUnits="userSpaceOnUse" x1="401" x2="401" y1="1075.4" y2="1086.4">
      <stop offset="0" stop-color="#ac0808"/>
      <stop offset="1" stop-color="#e4720c"/>
    </linearGradient>
    <linearGradient id="k" gradientTransform="matrix(.71746 0 0 .71428 -269.81 568.36)" gradientUnits="userSpaceOnUse" x1="407" x2="407" y1="636" y2="622">
      <stop offset="0" stop-color="#ffa92d"/>
      <stop offset="1" stop-color="#e05e4c"/>
    </linearGradient>
    <linearGradient id="l" gradientTransform="matrix(.71746 0 0 .71428 -269.81 568.36)" gradientUnits="userSpaceOnUse" x1="393" x2="393" y1="623" y2="632">
      <stop offset="0" stop-color="#913bb5"/>
      <stop offset="1" stop-color="#bf4231"/>
    </linearGradient>
  </defs>
  <g transform="translate(0 -1004.4)">
    <g>
      <path d="m22.911 1008.4c-5.8031.01-11.32 2.5094-15.131 6.8666-7.8276 7.7929 12.979 12.886 8.2592 17.585-1.7376 1.7299-2.4511 3.943-2.4551 6.2626.0022.1112.0065.2223.01263.3334-.0043.1265-.01263.252-.01263.3808l.03365.021c.38505 4.8264 4.4302 8.5482 9.2933 8.5505.26435 0 .52849-.015.79173-.039 10.769-.4228 19.284-9.2309 19.297-19.961 0-11.046-8.9941-20-20.089-20zm0 26.428a4.3048 4.2857 0 0 1 4.3047 4.2857 4.3048 4.2857 0 0 1 -4.3047 4.2856 4.3048 4.2857 0 0 1 -4.3047-4.2856 4.3048 4.2857 0 0 1 4.3047-4.2857z" fill="url(#a)"/>
      <path d="m14 1010.5c-1.9941.9854-3.8277 2.2974-5.4121 3.9062l6.2518.8397z" fill="#432b4d"/>
      <path d="m20 1008.6c-2.0966.3081-4.1194.9437-6 1.8731v3.9062l6.9723 1.2374z" fill="#4d2f2b"/>
      <path d="m22.912 1008.4c-.98113.001-1.9542.08-2.9121.2207v5.7793l7.2374 1.0607-1.2374-6.8244c-1.0069-.1547-2.0374-.2363-3.0879-.2363z" fill="#813c33"/>
      <path d="m26 1008.6v5.7637l7.37 1.2374-1.37-5.0557c-1.8556-.9402-3.8674-1.6177-6-1.9454z" fill="url(#c)"/>
      <path d="m32 1010.5v3.8183l3.4627 1.1932 1.7834-1.1932c-1.52-1.5426-3.2927-2.8287-5.2461-3.8183z" fill="#7c8133"/>
      <path d="m6.0299 1018.5c-.47125 5.112 9.9314 8.9851 10.667 12.492.70149-3.5345-10.147-7.3879-10.667-12.492z" fill="#6c5548"/>
      <path d="m8.5625 1014.4c-.26776.2729-.53009.5524-.7832.8418-3.0028 2.9895-1.7814 5.5792.58593 7.9043-1.0296-1.1792.24061-1.1568.91407-.4863.71745.7143.71809 1.4291 1.4355.7148.71746-.7143-2.1523-2.1417-2.1523-3.5703z" fill="#2b3c4d"/>
      <path d="m8.562 1014.4v.429c0 .7142-1.4349 1.4285-1.4349 2.1428s1.4349 1.4286 1.4349 2.8571l.10509-.7324c.68806-1.931 4.3025 1.7583 5.3329.7324l.61872-1.3886.38128-4.0403z" fill="url(#l)"/>
    </g>
    <path d="m19.283 1020.4c.71746-.7143-.6761-2.7139-1.3936-1.9996-.71746.7143 0 2.1428-1.4349 2.1428s-.62133-1.7857 0-2.1428c.61258-.3522.52834-1.2517.02145-1.5083-.5069-.2567-1.4365.1294-1.4365 1.3383 0 1.0315-1.039 1.5985-1.039 1.5985v-5.4289h6l1.149 7.37z" fill="url(#j)" fill-rule="evenodd"/>
    <g>
      <path d="m19.283 1020.4s-2.1524 1.25-2.1524 5.7143h2.8698v-2.8572c0-2.1428 2.1524-2.8571 2.1524-2.8571h-2.1524-.71746z" fill="#ffafa5"/>
      <path d="m20 1020.4v2.8571c0 .7143-1.4349.7143-2.1524 1.4286-.35873.3571-.71746.7143-.71746 1.4286 0 .6312.71746 1.4285 1.4349 1.4285 1.4349 0 1.4349-1.1428 3.4349-1.1428h4v-6z" fill="url(#e)"/>
      <path d="m36.608 1030.5 1.3921 3.3253v.6956c0 2.1428-2.1517 5.7154-2.8691 6.4297-.66134.6584 1.113 1.9182 1.957 1.5527.25505-.2533.49915-.5166.74023-.7832.53544-.7349 1.072-1.6661 1.6074-2.1992.0877-.087.20725-.1698.3125-.2559 1.3521-2.0645 2.3296-4.3932 2.8418-6.8867z" fill="url(#i)"/>
      <path d="m38 1026.4-1.2816 2.8674 1.2816 3.1326h4.5898c.26579-1.2938.40854-2.6301.41016-4 0-.6751-.034-1.3421-.0996-2z" fill="#2b3c4d"/>
      <path d="m38 1020.4-2.0329 5.6464 2.0329 2.4962c0 1.4285.92824 1.2199 1.4356.7148.71745-.7142 1.4342-2.8574 2.8691-2.8574h.5957c-.21103-2.1158-.76092-4.1303-1.582-6z" fill="url(#g)"/>
      <path d="m42.99 1028c-.20155 10.565-8.6397 19.182-19.287 19.6-.26324.024-.52738.039-.79173.039-4.8631 0-8.9083-3.7242-9.2933-8.5505l-.03365-.021c.0022.1112.0065.2223.01263.3334-.0043.1265-.01263.252-.01263.3809l.03365.021c.38504 4.8263 4.4302 8.5481 9.2933 8.5504.26435 0 .52849-.015.79173-.039 10.769-.4228 19.284-9.2309 19.297-19.961 0-.1183-.0077-.2351-.0098-.353z" fill="#6c5548"/>
      <path d="m22.911 1034.1a4.3048 4.2857 0 0 0 -4.3047 4.2857 4.3048 4.2857 0 0 0 .01822.3557 4.3048 4.2857 0 0 1 4.2865-3.9271 4.3048 4.2857 0 0 1 4.2865 3.9299 4.3048 4.2857 0 0 0 .01822-.3585 4.3048 4.2857 0 0 0 -4.3047-4.2857z" fill="#6c5548"/>
      <ellipse cx="40.004" cy="1034.4" fill="#7cbcec" rx="1.0044" ry=".99999"/>
      <path d="m20 1014.4v6h3.5873c1.4349 0 1.4349.7143 1.4349 1.4286s-.71746 1.8571-.71746 2.5714.9778 2 1.6953 2l1.6352-6-1.6352-6z" fill="url(#k)"/>
      <path d="m1014.4-32 7.5468-1.5026-1.5468 7.5026h-6z" fill="url(#b)" transform="rotate(90)"/>
      <path d="m32 1014.4v6l6.8397.8397-.83969-6.0135c-.24664-.2798-.49216-.5606-.75391-.8262z" fill="url(#d)"/>
      <path d="m38 1015.2v5.1738h3.3184c-.83416-1.8994-1.9635-3.6368-3.3184-5.1738z" fill="#2b4d37"/>
      <path d="m26 1020.4h6l1.0165 6.9723-7.0165-.9723z" fill="#f7e385"/>
      <path d="m32 1020.4v6h6v-2c0-1.4286 2.6095-.078 2.6095-1.1429 0-.7142-1.1761-.8064-1.4349-1.4285-.18304-.44.715-1.4286 0-1.4286z" fill="url(#h)"/>
      <ellipse cx="33.673" cy="1017.6" fill="#ffa92d" rx=".71746" ry=".71427"/>
    </g>
    <path d="m30.305 1022.8c-.71746 0-1.4349.7142-.71746 1.4285.71746.7143.71746 2.1429-.71746 2.1429h-2.8698s2.1524.7143 2.1524 2.1428c0 1.4286-1.759 1.6472-1.752 3.473.0065 1.7649 1.7 1.2377 2.2635 2.4463.36345.7797-.51208 1.354.28446 2.147.26951.1737 1.9378.2653 2.5419-.3362 1.3603-1.3543.50976-2.0158.50976-3.4444l2.0771-3.1701-2.0771-3.2584v-.7143c0-.7143-.97779-2.8571-1.6952-2.8571z" fill="#ecfde3" fill-rule="evenodd"/>
    <g>
      <path d="m32 1026.4v5.7142.7143c0-.7143 6-.7143 6 1.4286v-2.1429-5.7142z" fill="url(#f)"/>
      <ellipse cx="30.086" cy="1030.1" fill="#986f34" rx=".71746" ry="1.0714"/>
      <ellipse cx="28.292" cy="1016.2" fill="#d7e04c" rx="1.0762" ry=".71428"/>
    </g>
  </g>
</svg>
