<?xml version="1.0" encoding="UTF-8" standalone="no"?>
<svg
   xmlns:dc="http://purl.org/dc/elements/1.1/"
   xmlns:cc="http://creativecommons.org/ns#"
   xmlns:rdf="http://www.w3.org/1999/02/22-rdf-syntax-ns#"
   xmlns:svg="http://www.w3.org/2000/svg"
   xmlns="http://www.w3.org/2000/svg"
   xmlns:sodipodi="http://sodipodi.sourceforge.net/DTD/sodipodi-0.dtd"
   xmlns:inkscape="http://www.inkscape.org/namespaces/inkscape"
   inkscape:version="1.0alpha (9dee831, 2019-01-15)"
   sodipodi:docname="d8d47af9059b6b3f12e47ea6014c966d.svg"
   id="svg64"
   xml:space="preserve"
   enable-background="new 0 0 1000 1000"
   viewBox="0 0 1000 1000"
   y="0px"
   x="0px"
   version="1.1"><defs
   id="defs68" />
<sodipodi:namedview
   inkscape:current-layer="svg64"
   inkscape:window-maximized="1"
   inkscape:window-y="0"
   inkscape:window-x="0"
   inkscape:cy="500"
   inkscape:cx="112.87129"
   inkscape:zoom="0.505"
   showgrid="false"
   id="namedview66"
   inkscape:window-height="699"
   inkscape:window-width="1366"
   inkscape:pageshadow="2"
   inkscape:pageopacity="0"
   guidetolerance="10"
   gridtolerance="10"
   objecttolerance="10"
   borderopacity="1"
   inkscape:document-rotation="0"
   bordercolor="#666666"
   pagecolor="#ffffff" />

<metadata
   id="metadata58"> Svg Vector Icons : http://www.onlinewebfonts.com/icon <rdf:RDF>
  <cc:Work
     rdf:about="">
    <dc:format>image/svg+xml</dc:format>
    <dc:type
       rdf:resource="http://purl.org/dc/dcmitype/StillImage" />
  </cc:Work>
</rdf:RDF>
</metadata>

<g
   style="fill:#0056ff;fill-opacity:1"
   id="g62">
  <path
     style="fill:#0056ff;fill-opacity:1"
     id="path60"
     d="M500,10C231.5,10,10,231.5,10,500s221.5,490,490,490s490-221.5,490-490S768.5,10,500,10z M795.3,835.6c0-134.2-100.7-248.4-221.5-281.9c73.8-26.8,120.8-100.7,120.8-181.2c0-107.4-87.3-194.7-194.7-194.7s-194.7,87.3-194.7,194.7c0,80.5,53.7,154.4,120.8,181.2c-127.5,33.6-221.5,147.7-221.5,281.9C110.7,755.1,50.3,634.2,50.3,500C50.3,251.6,251.6,50.3,500,50.3c248.4,0,449.7,201.4,449.7,449.7C949.7,634.2,889.3,755.1,795.3,835.6z" />
</g>

</svg>
